<svg width="175" height="68" viewBox="0 0 175 68" fill="none" xmlns="http://www.w3.org/2000/svg">
<g clip-path="url(#clip0_1_2251)">
<path d="M30.2264 7.22363H63.3284V60.0079H7.15865V8.09058V8.09191L14.4434 18.3891L30.2264 7.22363Z" fill="#D8D1C1"/>
<path d="M34.2677 10.2229C34.2677 15.6529 32.4979 20.6834 29.4855 24.8083C28.0703 26.7454 26.3815 28.4832 24.4724 29.9662C21.1135 32.579 17.0734 34.4098 12.6484 35.1719C12.2807 35.2356 11.9103 35.2914 11.5385 35.3392L8.03356 33.0994L7.86362 32.9919V10.3012L14.2761 19.3664L30.4441 7.92874H34.1615C34.2305 8.6855 34.2677 9.45022 34.2677 10.2229ZM6.45367 32.0904L3.03632 29.9065V35.1175C2.52518 35.0219 2.01803 34.9143 1.51883 34.7909V1.51758H1.6516L6.45499 8.30845C6.45366 8.30845 6.45367 32.0904 6.45367 32.0904ZM32.4409 6.52012L33.8203 5.54431C33.8681 5.78726 33.9106 6.03155 33.9504 6.27716L33.9889 6.52012H32.4409Z" fill="#66C0FF"/>
<path d="M49.6576 14.0225C49.6576 17.4492 52.435 20.2279 55.863 20.2279C59.2896 20.2279 62.0684 17.4505 62.0684 14.0225C62.0684 10.5959 59.2909 7.81714 55.863 7.81714C52.435 7.81714 49.6576 10.5946 49.6576 14.0225Z" fill="#CB6362"/>
<path d="M35.509 2.62867L35.2209 2.22241H3.86744L14.6107 17.4119L30.8371 5.93449V5.93183L33.5441 4.01605L33.5455 4.01738L35.509 2.62867Z" fill="#F2EFEA"/>
<path d="M20.4788 41.0572C21.2382 37.5017 22.7066 34.2105 24.7339 31.3375C26.1637 29.3076 27.8737 27.486 29.8041 25.93C34.3606 22.2578 40.1544 20.0605 46.462 20.0605C47.24 20.0605 48.0087 20.0937 48.7681 20.1588C54.2725 20.6314 59.2976 22.7835 63.3283 26.1013C64.8538 27.3559 66.2372 28.7765 67.4506 30.3378V64.1952H45.8154L49.3615 59.6215L47.8387 58.5461L35.5302 50.6772L35.7811 50.6626L36.1197 50.6414L36.4596 50.6161L36.7994 50.5883L37.1393 50.5564L37.4792 50.5219L37.8191 50.4834L38.1589 50.4422L38.4988 50.3958L38.8374 50.3466L39.1746 50.2935L39.5105 50.2364L39.845 50.1754L39.9964 50.1462L40.1491 50.1143L40.3031 50.0798L40.4571 50.0426L40.6124 50.0041L40.7677 49.9629L40.9244 49.9191L41.0811 49.874L41.2377 49.8262L41.3957 49.7771L41.5537 49.7253L41.7117 49.6722L41.871 49.6178L42.0303 49.5607L42.1896 49.5023L42.349 49.4425L42.5083 49.3814L42.6676 49.319L42.8269 49.2553L42.9862 49.1889L43.1442 49.1226L43.3022 49.0535L43.4602 48.9845L43.6169 48.9141L43.7735 48.8424L43.9302 48.7694L44.0868 48.6951L44.2408 48.6207L44.3949 48.545L44.5489 48.468L44.7002 48.391L44.8516 48.3127L45.0016 48.2344L45.1503 48.1547L45.299 48.075L45.445 47.9954L45.5911 47.9144L45.7344 47.8334L45.8765 47.7511L46.0172 47.6688L46.1566 47.5865L46.2947 47.5042L46.4314 47.4219L46.5669 47.3395L46.6996 47.2559L46.8311 47.1736L46.9598 47.0913L47.0873 47.009L47.2121 46.9266L47.3356 46.8443L47.4564 46.762L47.5745 46.681L47.6914 46.6L47.8056 46.5191L47.9171 46.4394L48.0259 46.3597L48.1322 46.2814L48.2357 46.2031L48.3366 46.1261L48.4349 46.0491L48.5304 45.9734L48.6234 45.899L48.7137 45.8247L48.8 45.753C50.3878 44.4041 54.4066 39.4919 54.0972 39.3299L54.08 39.3206L54.0561 39.3073L54.0269 39.2914L53.991 39.2715L53.9499 39.2489L53.9034 39.2237L53.8516 39.1958L53.7945 39.1653L53.7321 39.1321L53.6644 39.0962L53.5914 39.0577L53.5144 39.0166L53.4321 38.9741L53.3458 38.9289L53.2555 38.8812L53.1599 38.832L53.0603 38.7803L52.9568 38.7271L52.8493 38.6727L52.7377 38.6156L52.6236 38.5572L52.5054 38.4975L52.3833 38.4364L52.2585 38.374L52.1297 38.3103L51.9982 38.2465L51.8641 38.1815L51.7274 38.1151L51.588 38.0487L51.4459 37.981L51.3012 37.9133L51.1539 37.8443L51.0052 37.7752L50.8578 37.7049L50.7051 37.6358L50.5498 37.5655L50.3931 37.4964L50.2351 37.4261L50.0758 37.357L49.9152 37.2867L49.7532 37.2176L49.5899 37.1486L49.4253 37.0809L49.2606 37.0132L49.0947 36.9468L48.9274 36.8804L48.7601 36.8153L48.5928 36.7516L48.4256 36.6892L48.2583 36.6282L48.091 36.5671L47.9237 36.5073L47.7564 36.4502L47.5892 36.3945L47.4232 36.3401L47.2586 36.2869L47.0939 36.2365L46.9293 36.1874L46.766 36.1409L46.604 36.0958L46.4434 36.0533L46.2841 36.0135L46.1274 35.9763L45.9708 35.9404C45.8247 35.9086 45.68 35.878 45.5353 35.8502C45.3919 35.8223 45.2485 35.7944 45.1065 35.7692C44.9644 35.7439 44.8237 35.72 44.6843 35.6988C44.5436 35.6762 44.4055 35.6563 44.2661 35.6364C44.128 35.6178 43.9913 35.6006 43.8545 35.5846C43.7178 35.5687 43.5823 35.5541 43.4482 35.5421C43.3142 35.5289 43.1801 35.5182 43.0473 35.509C42.9145 35.4997 42.7831 35.4917 42.6517 35.4837C42.5202 35.4771 42.3914 35.4718 42.2613 35.4678C42.1326 35.4638 42.0038 35.4612 41.8763 35.4612C41.7489 35.4598 41.6227 35.4598 41.4966 35.4625C41.3705 35.4638 41.2457 35.4678 41.1222 35.4718C40.9988 35.4758 40.8753 35.4824 40.7531 35.489C40.631 35.497 40.5102 35.505 40.3894 35.5143C40.2686 35.5236 40.1491 35.5355 40.0309 35.5475C39.9127 35.5594 39.7946 35.5727 39.6778 35.5886C39.5609 35.6045 39.4454 35.6205 39.3299 35.6377C39.2144 35.655 39.1002 35.6736 38.9874 35.6948C38.7604 35.7346 38.5373 35.7798 38.3169 35.8289C38.2067 35.8528 38.0979 35.8794 37.989 35.9059C37.8801 35.9325 37.7726 35.9603 37.6651 35.9896C37.5588 36.0188 37.4526 36.0493 37.3464 36.0798C37.2415 36.1104 37.1367 36.1436 37.0331 36.1768C36.9295 36.2099 36.826 36.2445 36.7251 36.2803C36.6229 36.3162 36.522 36.352 36.4211 36.3892C36.3202 36.4263 36.2206 36.4649 36.1223 36.5047C36.0228 36.5445 35.9258 36.5843 35.8276 36.6255C35.7307 36.6667 35.6338 36.7091 35.5368 36.7529C35.3443 36.8406 35.1571 36.9309 34.9699 37.0238C34.877 37.0703 34.7854 37.1194 34.6938 37.1672C34.6022 37.2163 34.5119 37.2654 34.4216 37.3159C34.3314 37.3663 34.2424 37.4168 34.1548 37.4685C34.0672 37.5203 33.9795 37.5734 33.8919 37.6265C33.8043 37.6796 33.7193 37.7341 33.633 37.7885C33.548 37.8429 33.4631 37.8987 33.3781 37.9558L33.1272 38.1271C33.0449 38.1855 32.9626 38.2439 32.8802 38.3023L32.6386 38.4815C32.559 38.5413 32.4793 38.6023 32.401 38.6647L32.1673 38.8519L31.9376 39.0431L31.7119 39.237L31.4902 39.4334L31.2711 39.6339L31.0561 39.8371L30.845 40.0428L30.6286 40.2539L30.4254 40.465L30.225 40.6788L30.0285 40.8939L29.836 41.1116L29.6474 41.3306L29.4616 41.551L29.2797 41.7727L29.1005 41.9958L28.9252 42.2202L28.7526 42.4459L28.584 42.6729L28.4181 42.8999L28.2561 43.1283L28.0968 43.3566L27.9401 43.585C27.5923 44.0988 27.2537 44.6431 26.9338 45.1888L20.9501 41.3638L20.4748 41.0598L20.4788 41.0572Z" fill="#EB8E51"/>
<path d="M49.3616 59.623L45.8155 64.1967H3.03635V29.9065L8.03225 33.0995L13.53 36.6137L20.9542 41.36L26.9378 45.185C25.5186 47.6013 24.4565 50.0375 24.4565 50.0375C24.4565 50.0375 29.759 50.9921 35.5316 50.6787L47.8402 58.5476L49.3616 59.623Z" fill="#D89795"/>
<path d="M48.8026 45.7518C46.9944 47.2865 43.0712 49.5661 39.849 50.1755C32.7236 51.5257 24.4577 50.0361 24.4577 50.0361C24.4577 50.0361 26.0522 46.3784 27.9454 43.5811C31.2473 38.702 36.6215 33.8947 45.9655 35.9352C49.2819 36.6601 53.7919 39.1627 54.1012 39.326C54.4079 39.4907 50.3905 44.4029 48.8026 45.7518ZM32.1182 44.314C31.396 40.5076 33.8773 36.842 37.6598 36.1251C41.4422 35.4082 45.0945 37.9121 45.8168 41.7184C46.539 45.5234 44.0576 49.1904 40.2752 49.9073C36.4928 50.6242 32.8404 48.1203 32.1182 44.314Z" fill="#FFEEC0"/>
<path d="M32.1182 44.3139C31.3959 40.5089 33.8773 36.842 37.6597 36.1264C41.4422 35.4095 45.0945 37.9134 45.8167 41.7197C46.539 45.5247 44.0576 49.1917 40.2752 49.9073C36.4927 50.6242 32.8404 48.1203 32.1182 44.3139Z" fill="#66C0FF"/>
<path d="M34.9713 10.2228C34.9713 12.9644 34.5318 15.609 33.7166 18.0944C32.8736 20.666 31.6269 23.0664 30.051 25.2238C29.3248 26.2169 28.5282 27.1608 27.6653 28.0477C26.7996 28.9372 25.8769 29.7643 24.9024 30.5224C23.1606 31.8779 21.2368 33.029 19.175 33.9371C17.1597 34.8239 15.0102 35.4785 12.7652 35.8661L12.4439 35.9206L10.5958 34.739C11.2503 34.6752 11.8956 34.5889 12.5289 34.4788C14.6584 34.1123 16.6963 33.4923 18.6081 32.6493C20.5624 31.789 22.3852 30.6976 24.0395 29.4098C24.9741 28.6836 25.8491 27.9016 26.6589 27.0679C27.4728 26.2301 28.2282 25.3353 28.9185 24.3927C30.4082 22.3548 31.5844 20.0885 32.3797 17.6602C33.1484 15.3169 33.5626 12.817 33.5626 10.2228C33.5626 9.5696 33.5374 8.92703 33.4856 8.2964C33.4325 7.63922 33.3555 7.00328 33.2573 6.38725C33.2081 6.0819 33.1537 5.78716 33.0966 5.50172L33.0409 5.23486L33.949 4.59229L34.2822 4.35729C34.3499 4.64539 34.415 4.93614 34.4734 5.2269C34.5371 5.54686 34.5955 5.86151 34.6447 6.16819C34.7535 6.84662 34.8372 7.51973 34.8903 8.18753C34.9434 8.8633 34.9713 9.54172 34.9713 10.2228ZM3.03624 35.8303C2.46801 35.7281 1.90775 35.6086 1.3528 35.4732L0.813774 35.3404V0.8125H33.163L33.3356 1.27054L33.4285 1.5188H2.5105L3.00836 2.22378H2.22373V34.2345C2.49324 34.2942 2.76408 34.35 3.03757 34.4018L3.03624 35.8303Z" fill="black"/>
<path d="M50.3613 14.0224C50.3613 15.5412 50.9774 16.9167 51.9731 17.9124C52.9675 18.9081 54.3429 19.5242 55.8631 19.5242C57.3819 19.5242 58.7573 18.9081 59.7517 17.9124C60.7474 16.918 61.3635 15.5426 61.3635 14.0224C61.3635 12.5036 60.7474 11.1282 59.7517 10.1324C58.7573 9.13804 57.3819 8.52201 55.8631 8.52201C54.3442 8.52201 52.9688 9.13804 51.9731 10.1324C50.9774 11.1282 50.3613 12.5036 50.3613 14.0224ZM50.976 18.9081C49.7254 17.6575 48.9527 15.9302 48.9527 14.0211C48.9527 12.1133 49.7267 10.386 50.976 9.13538C52.2267 7.88475 53.9539 7.11206 55.8631 7.11206C57.7709 7.11206 59.4981 7.88607 60.7488 9.13538C61.9994 10.386 62.7721 12.1133 62.7721 14.0211C62.7721 15.9289 61.9981 17.6575 60.7488 18.9081C59.4981 20.1588 57.7709 20.9314 55.8631 20.9314C53.9552 20.9314 52.2267 20.1588 50.976 18.9081Z" fill="black"/>
<path d="M69.6731 32.5073V60.7528L69.6704 60.7913C69.6545 61.0608 69.6465 61.2215 69.6372 61.3768C69.3996 65.7129 69.3611 66.4205 64.9427 66.4205H27.6971L27.4887 66.22C26.8288 65.5801 26.1982 64.9057 25.6021 64.198H27.4767C27.733 64.4742 27.9958 64.745 28.264 65.0119H64.9414C68.0294 65.0119 68.0573 64.4928 68.2326 61.3078L68.2631 60.7555H68.2618V32.7078C67.5515 31.5965 66.7522 30.5384 65.8773 29.544C64.952 28.4938 63.9496 27.5233 62.8809 26.6444C60.8934 25.0088 58.6523 23.6626 56.2267 22.6722C53.8742 21.7123 51.3477 21.0883 48.7083 20.8613C48.31 20.8267 47.937 20.8028 47.5891 20.7869C47.2479 20.7723 46.8709 20.7643 46.4593 20.7643C43.4416 20.7643 40.5487 21.2795 37.8615 22.2261C35.0708 23.2085 32.4992 24.657 30.2422 26.4772C29.3022 27.2352 28.4154 28.0571 27.5882 28.9386C26.7664 29.8162 26.003 30.7522 25.306 31.7399C24.2506 33.2362 23.3531 34.8439 22.6335 36.5393C21.9697 38.1046 21.4559 39.7509 21.1094 41.4596L20.9514 41.3587L19.8441 40.651C20.2039 39.0419 20.7071 37.4859 21.3391 35.995C22.1011 34.1961 23.0477 32.5007 24.155 30.9314C24.8878 29.8919 25.6937 28.9041 26.5633 27.9761C27.4329 27.048 28.3676 26.1811 29.3606 25.3819C31.7424 23.4634 34.4521 21.9353 37.3929 20.8998C40.2313 19.9 43.2836 19.3557 46.458 19.3557C46.8244 19.3557 47.2214 19.365 47.6475 19.3836C48.0684 19.4022 48.46 19.4261 48.8225 19.4579C51.6065 19.6969 54.2724 20.3554 56.7538 21.3684C59.3069 22.4106 61.6701 23.8312 63.7717 25.5611C64.9108 26.4984 65.9689 27.5194 66.9328 28.6147C67.8953 29.7086 68.7756 30.8849 69.5602 32.1342L69.6704 32.3095L69.6731 32.5073Z" fill="black"/>
<path d="M68.9682 67.2329H0V0H70.4856V67.2329H68.9682ZM3.03631 64.1966H67.4493V3.03631H3.03631V64.1966Z" fill="black"/>
<path d="M32.381 8.13715C32.3226 7.36446 32.2602 6.59178 32.2124 5.81909L31.2406 6.50548L29.6448 7.6353C29.6076 8.03226 29.585 8.42525 29.5598 8.80495C29.4337 10.7021 29.2066 12.59 29.1018 14.4899C28.9836 16.6008 28.9239 18.7144 28.8429 20.8267C28.8137 21.5835 28.7738 22.3389 28.7287 23.0957C28.6464 21.6233 28.5561 20.1523 28.4472 18.6813C28.2946 16.6128 28.114 14.547 27.9069 12.4838C27.8073 11.4881 27.6905 10.495 27.5882 9.49931C27.575 9.37185 27.5644 9.24307 27.5551 9.11429L24.9781 10.9371C24.3701 13.7969 24.4497 16.8106 24.2957 19.7102C24.2001 21.4998 24.1178 23.2908 24.0395 25.0818C23.9067 23.6957 23.7819 22.3097 23.6704 20.9223C23.527 19.13 23.3358 17.3178 23.3279 15.5201C23.3225 14.3638 23.4301 13.1968 23.4208 12.0378L21.2395 13.5805C21.2249 13.6907 21.2116 13.8009 21.1957 13.911C21.047 14.9745 20.889 16.0353 20.7496 17.1C20.4748 19.1937 20.2331 21.2927 20.0048 23.3917C19.714 26.0656 19.4485 28.7421 19.1883 31.4199C19.2029 30.9168 19.2148 30.4123 19.2241 29.9104C19.2653 27.761 19.2759 25.6142 19.3808 23.4647C19.4857 21.3325 19.6291 19.2043 19.7419 17.0735C19.7857 16.2357 19.8255 15.398 19.8548 14.5603L16.8822 16.6632C16.2356 19.8575 15.8267 23.1049 15.3089 26.3231C15.3249 26.1439 15.3408 25.966 15.3607 25.7868C15.5798 23.6931 15.909 21.614 16.1745 19.527C16.2821 18.6759 16.3777 17.8223 16.452 16.9673L14.442 18.3892L13.8578 17.5634C13.6958 18.4343 13.5551 19.3092 13.3679 20.1602C12.7333 23.0399 12.1146 25.9222 11.5079 28.8085C11.1056 30.7176 10.6848 32.6268 10.2865 34.5412L11.4017 35.2542C12.3722 30.2437 13.4781 25.2544 14.5681 20.2704C14.6783 19.7686 14.7832 19.2667 14.8867 18.7649C14.6464 21.2954 14.2229 23.8139 13.9269 26.3364C13.5883 29.2174 13.5471 32.105 13.5764 34.9953C14.0928 34.8877 14.6039 34.7656 15.1085 34.6288C15.1085 34.6049 15.1071 34.581 15.1071 34.5572C15.4828 32.19 15.9581 29.8387 16.4002 27.4835C16.9286 24.6609 17.2977 21.8132 17.7518 18.9786C17.9297 17.8674 18.1209 16.7575 18.3386 15.6516C18.2443 18.429 18.0478 21.2051 17.9005 23.9812C17.7252 27.2525 17.6549 30.5384 17.6097 33.8177C18.5935 33.4446 19.5481 33.0158 20.4695 32.5352C20.9076 27.9893 21.3444 23.4422 21.8821 18.907C21.9391 19.7858 22.0188 20.6647 22.0865 21.5383C22.3308 24.7233 22.6667 27.899 22.9243 31.0827C23.454 30.7296 23.9704 30.3565 24.4696 29.9675C24.7551 29.7458 25.0339 29.5188 25.3087 29.2864C25.3552 28.2084 25.4215 27.129 25.4654 26.0563C25.634 21.9273 25.7893 17.7917 26.0243 13.6668C26.0601 13.0494 26.1026 12.4267 26.165 11.8041C26.2553 12.6285 26.3416 13.453 26.4226 14.2775C26.6257 16.3406 26.8023 18.4078 26.951 20.4762C27.0997 22.546 27.2125 24.6171 27.3201 26.6896C27.332 26.9113 27.344 27.133 27.3559 27.3547C28.1193 26.5515 28.8296 25.7018 29.4828 24.8096C29.7045 24.5056 29.9196 24.1949 30.128 23.8816C30.1891 22.9722 30.2528 22.0627 30.2953 21.1507C30.4719 17.3563 30.5104 13.5499 30.8728 9.76616C30.8742 9.78608 30.8755 9.80466 30.8768 9.82325C31.0043 11.4855 31.1556 13.145 31.3919 14.7953C31.6442 16.5623 31.9681 18.3228 32.1978 20.0912C32.6877 18.976 33.0966 17.8209 33.4179 16.6301C33.2387 15.4949 33.0475 14.3611 32.8895 13.2233C32.6545 11.5359 32.5085 9.83785 32.381 8.13715ZM10.1962 34.4828C10.4896 28.8191 10.9675 23.1567 11.3964 17.505C11.4734 16.4973 11.5743 15.5148 11.711 14.5271L10.0249 12.1426C8.81014 15.3091 8.37998 18.7437 7.93389 22.0853C7.48515 25.4522 6.98994 28.8098 6.59563 32.182L7.75997 32.9268C7.92991 31.3589 8.12109 29.7936 8.32687 28.231C8.61232 26.0669 8.9429 23.9108 9.24427 21.7494C9.51113 19.8336 9.75541 17.9126 10.1099 16.0114C10.2055 15.5042 10.3077 14.9984 10.4206 14.4952C10.236 15.5945 10.0501 16.6739 9.96385 17.7904C9.71027 21.0737 9.47528 24.3582 9.24294 27.6441C9.10354 29.6329 8.95883 31.6231 8.83138 33.6132L10.1962 34.4828Z" fill="black"/>
<path d="M49.9178 60.053L45.6813 65.5176H1.80422V28.2866C8.31231 32.4474 14.8217 36.6083 21.3298 40.7691L27.2975 44.5847C27.0506 44.9857 26.8129 45.3932 26.5859 45.7955L20.5757 41.9533C14.7885 38.2532 9.00135 34.5531 3.21285 30.8543V64.109H44.995L48.3552 59.7755L47.4338 59.125L47.4352 59.1237L34.3035 50.729C35.0934 50.7091 35.898 50.6679 36.7065 50.5989L48.2171 57.9567L48.245 57.9739L50.3679 59.4742L49.9178 60.053Z" fill="black"/>
<path d="M7.15857 6.52002H64.0319V60.7129H6.4536V6.52002H7.15857ZM62.622 7.92997H7.86355V59.3043H62.6233C62.622 59.3043 62.622 7.92997 62.622 7.92997Z" fill="black"/>
<path d="M69.6732 1.51748V50.9255L48.1947 20.5651H48.192L38.5348 6.91167L38.5361 6.91034L36.3176 3.77446L34.354 5.1645V5.16715L31.647 7.08161L31.6456 7.08028L14.2762 19.3676L1.15112 0.8125H34.2226H40.5076H69.6719C69.6732 0.8125 69.6732 1.51748 69.6732 1.51748ZM35.5091 2.62871L35.221 2.22245H3.86747L14.6107 17.4106L30.8371 5.9332V5.93055L33.5442 4.01476L33.5455 4.01609L35.5091 2.62871ZM38.5148 2.22245L37.4647 2.9646L39.6832 6.10048H39.6858L49.3431 19.7539L49.3417 19.7552L68.2632 46.5032V2.22245H38.5148Z" fill="black"/>
<path d="M36.1437 43.5451L36.145 43.5438C36.0043 42.795 36.1782 42.0595 36.5725 41.4767C36.9695 40.8898 37.5895 40.457 38.3409 40.3136L38.3463 40.311V40.3123C39.0924 40.1716 39.8266 40.3482 40.4081 40.7478C40.9922 41.1474 41.4237 41.7714 41.5671 42.5242L41.5698 42.5348C41.7078 43.2822 41.5352 44.0151 41.1409 44.5966C40.744 45.1834 40.1226 45.6176 39.3725 45.7596L39.3619 45.7623V45.7636C38.6171 45.9017 37.8856 45.7251 37.3041 45.3268C36.7212 44.9259 36.2884 44.3019 36.145 43.5504L36.1437 43.5451ZM49.2568 46.2893C48.2252 47.1656 46.5325 48.2728 44.6711 49.1929C43.1457 49.947 41.4941 50.5803 39.9766 50.867C32.7224 52.2411 24.3583 50.7343 24.3344 50.7303L23.4528 50.5736L23.8113 49.7558C23.8126 49.7518 23.956 49.4252 24.2069 48.8902L22.1225 47.9144C22.0349 47.8732 21.9924 47.8546 21.9194 47.8015C21.8052 47.7179 21.7163 47.5931 21.6764 47.4431C21.5861 47.1032 21.772 46.758 22.0933 46.6717C22.2593 46.6279 22.4279 46.6611 22.5646 46.75L24.7459 47.771C25.107 47.0448 25.5545 46.1831 26.0536 45.3029L23.2298 43.577C23.1647 43.5372 23.1315 43.5146 23.0758 43.4601C22.9788 43.3646 22.9098 43.2371 22.8872 43.0897C22.8341 42.7419 23.0572 42.4206 23.3864 42.3702C23.555 42.3449 23.7197 42.3954 23.8458 42.5003L26.6856 44.2368C26.9047 43.8797 27.1304 43.5279 27.36 43.188C27.6468 42.7645 27.9482 42.3409 28.2668 41.9227L25.9833 39.7308C25.9342 39.6843 25.9076 39.6512 25.8691 39.5927C25.7948 39.4799 25.7549 39.3405 25.7656 39.1918C25.7881 38.8413 26.0749 38.5758 26.4068 38.597C26.5781 38.609 26.7268 38.6953 26.8277 38.8227L29.0435 40.9509C29.8626 39.9791 30.7814 39.0524 31.8169 38.2226L29.9901 35.5992C29.9383 35.5235 29.9131 35.489 29.8786 35.4067C29.8255 35.2792 29.8135 35.1319 29.852 34.9872C29.9436 34.6473 30.2769 34.4442 30.5968 34.5318C30.7615 34.5769 30.8916 34.6911 30.9659 34.8371L32.8087 37.4858C33.2999 37.1472 33.815 36.8326 34.3554 36.5445C34.9263 36.2405 35.525 35.967 36.153 35.732L35.2489 33.0767C35.209 32.9599 35.1772 32.8842 35.1666 32.766C35.1546 32.6333 35.1838 32.4939 35.2595 32.3691C35.4401 32.069 35.8171 31.9668 36.1012 32.1407C36.2473 32.231 36.3402 32.3757 36.3707 32.5363L37.328 35.3456C38.3768 35.0469 39.5013 34.8504 40.7055 34.7801L40.5953 31.9628C40.5913 31.8685 40.5926 31.8101 40.6165 31.7145C40.647 31.595 40.7108 31.4822 40.8103 31.3919C41.0692 31.1569 41.4596 31.1675 41.6826 31.4158C41.7968 31.5433 41.8433 31.7079 41.8286 31.8699L41.9415 34.7522C42.985 34.7641 44.087 34.869 45.2473 35.0761L45.8899 32.2323C45.9098 32.1473 45.9231 32.0969 45.9656 32.0172C46.0253 31.9057 46.1196 31.8088 46.243 31.7451C46.5537 31.5858 46.9294 31.6986 47.0808 31.996C47.1591 32.15 47.1618 32.3226 47.1047 32.4753L46.4594 35.3297C47.3211 35.5434 48.2425 35.8568 49.1426 36.2099L50.1941 33.4577C50.2233 33.382 50.2353 33.3515 50.2738 33.2878C50.3494 33.1617 50.4689 33.0594 50.6216 33.0063C50.9522 32.8935 51.308 33.0581 51.4142 33.3754C51.47 33.5387 51.4487 33.71 51.3704 33.852L50.2897 36.6826C51.1712 37.0636 51.9944 37.4552 52.6715 37.7925L53.8863 35.6005C53.9619 35.4625 54.0097 35.3523 54.1266 35.2474C54.2115 35.1717 54.3177 35.1159 54.4399 35.0934C54.7824 35.0283 55.1117 35.2421 55.1741 35.57C55.2059 35.7386 55.1608 35.9059 55.0639 36.036L53.7774 38.358C54.0336 38.4935 54.2261 38.597 54.339 38.6581L54.4279 38.7059C54.4877 38.7364 54.5421 38.7776 54.5912 38.8227C54.9285 39.1427 54.8475 39.6392 54.4571 40.2406C54.2553 40.5513 53.9566 40.9629 53.5982 41.4262C52.3369 43.0579 50.3003 45.4038 49.2568 46.2893ZM45.4292 47.1974C46.6174 46.519 47.649 45.8087 48.3487 45.2153C49.3245 44.3868 51.2695 42.1405 52.4843 40.5672C52.7618 40.2074 52.9994 39.8861 53.1746 39.6299C51.8098 38.909 48.4151 37.1924 45.8155 36.6241C44.6486 36.3692 43.5466 36.2258 42.5071 36.1767C42.7752 36.3175 43.0341 36.4728 43.2824 36.6441C44.9074 37.7579 46.1103 39.4945 46.5072 41.5882V41.5908C46.8909 43.6115 46.4528 45.5963 45.4292 47.1974ZM31.8886 40.0149C30.5703 41.2178 29.4644 42.5932 28.5284 43.9766C27.218 45.9136 26.0563 48.2622 25.4814 49.4863C27.2379 49.7399 31.3284 50.2231 35.6538 49.9696C35.306 49.8009 34.9714 49.6071 34.6528 49.3881C33.0277 48.2742 31.8249 46.5376 31.4266 44.4439V44.4426C31.1332 42.8932 31.323 41.3651 31.8886 40.0149ZM32.8087 44.1824V44.185C33.1339 45.8964 34.1177 47.3156 35.4454 48.2264C36.773 49.1358 38.4432 49.5381 40.1425 49.2181V49.2168L40.1479 49.2155C41.8446 48.8942 43.2505 47.9091 44.152 46.5774C45.0548 45.2432 45.4504 43.5624 45.1265 41.8497V41.8471C44.8012 40.1357 43.8175 38.7165 42.4898 37.8057C41.1622 36.8963 39.492 36.494 37.7926 36.8153H37.7873C36.0906 37.1379 34.6846 38.1217 33.7832 39.4533C32.8817 40.7889 32.4847 42.4711 32.8087 44.1824Z" fill="black"/>
<path d="M94.7887 30.8089L79.3968 33.2527L81.8406 48.6446L97.2325 46.2008L94.7887 30.8089Z" fill="#EDE4E6"/>
<path d="M88.3304 34.7164C88.584 33.9185 88.9637 33.3423 89.743 33.3423C90.4865 33.3423 90.902 33.9371 91.1556 34.7164L94.9248 46.4899H93.8733L92.6598 42.7021H86.8249L85.6114 46.4899H84.5599L88.3304 34.7164ZM87.0983 41.81H92.3877L90.2687 35.0138C90.1599 34.6434 90.0152 34.2716 89.743 34.2716C89.4722 34.2716 89.3261 34.6434 89.2173 35.0138L87.0983 41.81Z" fill="#363634" stroke="#363634" stroke-width="1.1999" stroke-miterlimit="10"/>
<path d="M99.8197 35.1241C99.8197 33.9358 100.363 33.4897 101.523 33.4897H104.894C107.213 33.4897 107.865 35.0683 107.865 37.2974C107.865 39.6009 107.304 41.1967 105.04 41.1967H104.259V41.2896L107.956 46.49H106.741L103.317 41.6242C103.172 41.4197 102.972 41.2339 102.972 40.9551V40.732C102.972 40.4532 103.135 40.3045 103.407 40.3045H104.983C106.722 40.3045 106.814 38.949 106.814 37.2961C106.814 35.5502 106.596 34.3806 104.712 34.3806H101.523C100.98 34.3806 100.798 34.5665 100.798 35.1227V46.4873H99.8197V35.1241Z" fill="#363634" stroke="#363634" stroke-width="1.1999" stroke-miterlimit="10"/>
<path d="M116.164 46.49V34.3819H111.942V33.4897H121.363V34.3819H117.141V46.49H116.164Z" fill="#363634" stroke="#363634" stroke-width="1.1999" stroke-miterlimit="10"/>
<path d="M90.3046 66.2704C86.1916 66.2704 85.468 63.2991 85.468 59.7716C85.468 56.2427 86.1372 53.2715 90.4865 53.2715H93.402V54.1637H90.4865C87.2245 54.1637 86.5182 56.2427 86.5182 59.7716C86.5182 63.2991 87.1528 65.3795 90.3232 65.3795H93.6025V66.2717H90.3046V66.2704Z" fill="#363634" stroke="#363634" stroke-width="1.1999" stroke-miterlimit="10"/>
<path d="M101.724 54.4969C101.977 53.699 102.357 53.1228 103.136 53.1228C103.88 53.1228 104.295 53.7176 104.549 54.4969L108.318 66.2704H107.266L106.053 62.4827H100.218L99.0046 66.2704H97.9531L101.724 54.4969ZM100.492 61.5918H105.781L103.662 54.7956C103.553 54.4252 103.408 54.0535 103.136 54.0535C102.865 54.0535 102.719 54.4252 102.61 54.7956L100.492 61.5918Z" fill="#363634" stroke="#363634" stroke-width="1.1999" stroke-miterlimit="10"/>
<path d="M121.763 64.9706C121.763 65.8442 121.382 66.4191 120.604 66.4191C120.025 66.4191 119.644 66.2146 119.336 65.4725L114.879 54.4969C114.825 54.3482 114.699 54.1809 114.498 54.1809C114.371 54.1809 114.19 54.2367 114.19 54.5527V66.2704H113.212V54.4411C113.212 53.16 114.19 53.1228 114.408 53.1228C115.114 53.1228 115.458 53.4932 115.657 53.9951L120.15 65.0264C120.223 65.2123 120.349 65.361 120.548 65.361C120.783 65.361 120.783 65.1565 120.783 65.0264V53.2715H121.762V64.9706H121.763Z" fill="#363634" stroke="#363634" stroke-width="1.1999" stroke-miterlimit="10"/>
<path d="M131.133 65.0636C131.206 65.3238 131.314 65.4167 131.441 65.4167C131.569 65.4167 131.676 65.3238 131.749 65.0636L135.191 53.2715H136.224L132.545 65.5654C132.436 65.9372 132.164 66.4191 131.44 66.4191C130.715 66.4191 130.443 65.9358 130.336 65.5654L126.657 53.2715H127.69L131.133 65.0636Z" fill="#363634" stroke="#363634" stroke-width="1.1999" stroke-miterlimit="10"/>
<path d="M143.076 54.4969C143.329 53.699 143.709 53.1228 144.488 53.1228C145.232 53.1228 145.647 53.7176 145.901 54.4969L149.67 66.2704H148.618L147.405 62.4827H141.57L140.357 66.2704H139.305L143.076 54.4969ZM141.844 61.5918H147.133L145.014 54.7956C144.905 54.4252 144.76 54.0535 144.488 54.0535C144.217 54.0535 144.071 54.4252 143.962 54.7956L141.844 61.5918Z" fill="#363634" stroke="#363634" stroke-width="1.1999" stroke-miterlimit="10"/>
<path d="M154.22 65.3795H159.201C159.962 65.3795 160.688 64.9706 160.688 63.1518C160.688 62.2981 160.361 61.852 159.058 61.0528L156.177 59.2698C154.927 58.5077 154.021 57.8399 154.021 56.2056C154.021 54.3482 154.892 53.2715 156.883 53.2715H161.141V54.1637H156.883C155.561 54.1637 155.072 54.7199 155.072 56.2069C155.072 57.042 155.29 57.5067 156.394 58.2302L159.149 60.0132C160.507 60.8855 161.74 61.4431 161.74 63.1518C161.74 64.7489 161.161 66.2717 159.202 66.2717H154.221V65.3795H154.22Z" fill="#363634" stroke="#363634" stroke-width="1.1999" stroke-miterlimit="10"/>
<path d="M92.4288 18.555C92.5364 19.0688 92.7873 19.106 92.8948 19.106C93.0024 19.106 93.2533 19.0688 93.3608 18.555L96.7317 1.10718H105.049L99.2051 22.9641C98.4882 25.6831 96.8379 27.1156 92.8948 27.1156C88.9504 27.1156 87.3015 25.6459 86.5846 22.9641L80.7403 1.10718H89.0593L92.4288 18.555Z" fill="#EB8E51"/>
<path d="M109.927 26.8209V1.10718H118.031V26.8209H109.927Z" fill="#EB8E51"/>
<path d="M130.041 3.93511C130.937 1.10724 132.91 0.8125 135.778 0.8125C138.647 0.8125 140.618 1.10724 141.514 3.93511L148.649 26.8209H140.115L138.86 21.5316H132.693L131.439 26.8209H122.905L130.041 3.93511ZM133.698 15.8732H137.858L136.102 9.15007C136.066 8.92968 135.958 8.5991 135.779 8.5991C135.6 8.5991 135.492 8.92968 135.456 9.15007L133.698 15.8732Z" fill="#EB8E51"/>
<path d="M152.447 5.14718C152.447 2.57555 153.881 1.10718 156.392 1.10718H168.044C173.781 1.10718 174.498 4.33998 174.498 9.84968C174.498 13.891 173.996 18.9971 169.693 18.9971H169.478V19.1445L175 26.8222H166.324L162.845 20.8717C162.057 19.5494 161.554 18.4846 161.554 17.0149V16.0975C161.554 13.8937 161.948 13.1953 164.099 13.1953H164.242C166.393 13.1953 166.751 12.497 166.751 10.2931C166.751 8.08923 166.393 7.50108 164.242 7.50108H161.769C160.692 7.50108 160.19 8.01488 160.19 9.11682V26.8222H152.446V5.14718H152.447Z" fill="#EB8E51"/>
</g>
<defs>
<clipPath id="clip0_1_2251">
<rect width="175" height="67.2329" fill="white"/>
</clipPath>
</defs>
</svg>
