<svg width="24" height="25" viewBox="0 0 24 25" fill="none" xmlns="http://www.w3.org/2000/svg">
<g filter="url(#filter0_d_1_2461)">
<circle cx="12" cy="12" r="12" fill="white"/>
<circle cx="12" cy="12" r="12" fill="url(#paint0_linear_1_2461)"/>
</g>
<g clip-path="url(#clip0_1_2461)">
<path d="M10.9041 17.2658C10.6431 17.2658 10.3912 17.1676 10.1986 16.9907L6.33751 13.443C5.91317 13.0532 5.88543 12.3934 6.27529 11.9683C6.66589 11.5455 7.32489 11.517 7.74998 11.9061L10.8366 14.743L16.1828 8.8435C16.5697 8.41616 17.2302 8.38392 17.6575 8.77078C18.0841 9.15763 18.1171 9.81739 17.7295 10.2447L11.6778 16.924C11.4903 17.1294 11.2302 17.2523 10.952 17.2658C10.9355 17.2658 10.9198 17.2658 10.9041 17.2658Z" fill="white"/>
</g>
<defs>
<filter id="filter0_d_1_2461" x="0" y="0" width="24" height="25" filterUnits="userSpaceOnUse" color-interpolation-filters="sRGB">
<feFlood flood-opacity="0" result="BackgroundImageFix"/>
<feColorMatrix in="SourceAlpha" type="matrix" values="0 0 0 0 0 0 0 0 0 0 0 0 0 0 0 0 0 0 127 0" result="hardAlpha"/>
<feOffset dy="1"/>
<feColorMatrix type="matrix" values="0 0 0 0 0.908333 0 0 0 0 0.443806 0 0 0 0 0.268715 0 0 0 1 0"/>
<feBlend mode="normal" in2="BackgroundImageFix" result="effect1_dropShadow_1_2461"/>
<feBlend mode="normal" in="SourceGraphic" in2="effect1_dropShadow_1_2461" result="shape"/>
</filter>
<linearGradient id="paint0_linear_1_2461" x1="0" y1="12" x2="24" y2="12" gradientUnits="userSpaceOnUse">
<stop stop-color="#FC8C5F"/>
<stop offset="1" stop-color="#FA7846"/>
</linearGradient>
<clipPath id="clip0_1_2461">
<rect width="12" height="8.76571" fill="white" transform="translate(6.00014 8.5)"/>
</clipPath>
</defs>
</svg>
